# xmcd
#
# Track frame offsets:
#	150
#	17982
#	32437
#	45218
#	59196
#	73640
#	85706
#	103890
#	123915
#	150788
#	155813
#	175919
#	186296
#	200922
#
# Disc length: 2970 seconds
#
# Revision: 0
# Processed by: cddbd v1.4PL0 Copyright (c) Steve Scherf et al.
# Submitted via: EasyCDDAExtractor 4.6.9.1
#
DISCID=bb0b980e
DTITLE=Steve Miller Band - Greatest Hits 1974-1978
DYEAR=1978
DGENRE=Rock
TTITLE0=Swingtown
TTITLE1=Jungle Love
TTITLE2=Take The Money And Run
TTITLE3=Rock 'N Me
TTITLE4=Serenade
TTITLE5=True Fine Love
TTITLE6=The Stake 
TTITLE7=The Joker
TTITLE8=Fly Like An Eagle
TTITLE9=Threshold
TTITLE10=Jet Airliner
TTITLE11=Dance, Dance, Dance
TTITLE12=Winter Time
TTITLE13=Wild Mountain Honey
EXTD=
EXTT0=
EXTT1=
EXTT2=
EXTT3=
EXTT4=
EXTT5=
EXTT6=
EXTT7=
EXTT8=
EXTT9=
EXTT10=
EXTT11=
EXTT12=
EXTT13=
PLAYORDER=
